<?xml version="1.0" standalone="no"?>
<!DOCTYPE svg PUBLIC "-//W3C//DTD SVG 20010904//EN"
 "http://www.w3.org/TR/2001/REC-SVG-20010904/DTD/svg10.dtd">
<svg version="1.0" xmlns="http://www.w3.org/2000/svg"
 width="744.000000pt" height="744.000000pt" viewBox="0 0 744.000000 744.000000"
 preserveAspectRatio="xMidYMid meet">
<metadata>
Created by potrace 1.14, written by Peter Selinger 2001-2017
</metadata>
<g transform="translate(0.000000,744.000000) scale(0.100000,-0.100000)"
fill="#000000" stroke="none">
<path d="M3655 6997 c-3 -6 -4 -190 -3 -407 l3 -395 53 -3 c31 -2 60 2 68 9
12 9 14 76 14 394 0 211 -3 390 -6 399 -8 20 -122 23 -129 3z"/>
<path d="M2158 6590 c-27 -17 -48 -32 -48 -35 0 -2 32 -60 72 -127 212 -364
210 -360 274 -476 26 -46 52 -86 59 -88 19 -8 105 48 105 68 0 9 -61 121 -135
248 -74 128 -135 233 -135 235 0 15 -124 205 -133 205 -7 0 -33 -14 -59 -30z"/>
<path d="M5128 6488 c-42 -73 -98 -171 -125 -218 -162 -278 -193 -333 -193
-340 0 -9 95 -70 108 -70 4 0 39 55 78 123 39 67 106 183 149 257 43 74 89
155 103 180 14 25 36 62 49 82 31 50 29 62 -12 87 -76 44 -73 46 -157 -101z"/>
<path d="M1031 5460 c-31 -51 -38 -70 -23 -70 5 0 60 -31 123 -68 63 -38 121
-71 129 -75 8 -4 29 -15 45 -26 29 -17 269 -156 348 -200 21 -11 42 -21 46
-21 12 0 61 84 61 103 0 13 -73 59 -210 135 -25 14 -49 28 -55 32 -9 7 -292
170 -378 219 -21 11 -42 21 -46 21 -5 0 -23 -23 -40 -50z"/>
<path d="M6275 5466 c-78 -47 -270 -159 -445 -259 -63 -36 -125 -74 -138 -84
l-23 -18 27 -48 c14 -27 32 -51 39 -53 7 -3 77 32 156 78 171 99 303 176 342
197 16 9 36 21 46 26 9 6 47 28 84 50 37 21 67 45 67 53 0 25 -52 102 -68 101
-10 0 -48 -20 -87 -43z"/>
<path d="M3520 5403 c-53 -5 -214 -37 -285 -57 -83 -23 -104 -32 -265 -109
-293 -142 -544 -406 -660 -697 -12 -30 -26 -64 -30 -75 -12 -29 -46 -151 -60
-215 -32 -153 -22 -498 18 -610 11 -30 23 -68 27 -85 11 -49 93 -252 148 -365
52 -108 155 -292 254 -453 30 -51 83 -146 117 -212 128 -249 175 -383 217
-627 28 -164 57 -221 131 -259 35 -18 67 -19 584 -19 537 0 549 0 591 21 24
12 55 37 68 57 23 34 31 62 74 272 39 192 94 347 188 529 52 101 78 147 232
406 122 205 246 471 292 625 31 104 37 131 49 203 5 37 15 97 21 133 14 78 7
295 -11 369 -71 288 -146 455 -284 625 -165 203 -340 331 -601 440 -67 27
-165 55 -305 86 -74 16 -408 28 -510 17z m510 -222 c52 -12 109 -26 125 -32
106 -40 148 -57 213 -91 281 -144 502 -394 596 -673 77 -229 85 -442 26 -720
-25 -118 -74 -266 -105 -315 -12 -19 -48 -84 -80 -145 -32 -60 -110 -199 -172
-309 -271 -471 -383 -750 -415 -1036 l-3 -25 -495 -3 -495 -2 -19 102 c-29
161 -73 313 -129 443 -29 69 -169 344 -199 391 -14 21 -66 111 -115 199 -258
458 -330 649 -352 935 -7 100 3 295 18 342 6 18 18 60 27 93 25 86 103 248
162 334 109 160 286 310 467 396 152 73 214 94 343 120 117 22 133 23 327 20
135 -3 204 -9 275 -24z"/>
<path d="M3193 3833 c-36 -14 1 -138 48 -163 39 -21 102 -21 143 0 l39 19 18
-20 c16 -18 25 -20 71 -14 29 4 67 12 85 17 25 9 36 8 57 -5 31 -21 62 -21
120 -2 40 14 49 14 74 1 36 -19 112 -15 146 7 23 15 29 16 49 3 29 -19 52 -21
108 -13 49 8 72 27 107 86 16 27 18 38 10 57 -20 42 -98 38 -98 -5 0 -26 -24
-43 -57 -39 -21 2 -33 12 -46 41 -12 24 -25 37 -38 37 -31 0 -59 -19 -59 -38
0 -26 -20 -42 -52 -42 -22 0 -32 8 -48 41 -19 36 -24 40 -53 37 -26 -2 -35
-10 -50 -40 -23 -51 -58 -52 -89 -3 -38 59 -99 57 -111 -4 -4 -18 -14 -32 -27
-36 -26 -8 -70 19 -70 43 0 26 -20 42 -51 42 -20 0 -33 -10 -53 -40 -16 -24
-34 -40 -46 -40 -12 0 -29 15 -45 40 -24 39 -47 48 -82 33z"/>
<path d="M4105 3476 c-9 -13 -20 -39 -26 -57 -20 -69 -52 -185 -60 -219 -10
-44 -95 -377 -115 -450 -8 -30 -21 -82 -29 -115 -8 -33 -25 -103 -39 -155 -14
-52 -41 -158 -61 -234 -21 -82 -32 -143 -27 -148 5 -5 38 -8 73 -6 l64 3 12
40 c6 22 21 92 33 155 13 63 28 144 35 180 8 36 28 137 45 225 17 88 38 194
46 235 8 41 21 107 29 145 7 39 21 106 30 150 9 44 20 105 25 135 4 30 13 68
19 84 20 51 -24 78 -54 32z"/>
<path d="M3289 3475 c-13 -14 -11 -33 18 -178 18 -89 40 -200 49 -247 9 -47
22 -116 30 -155 29 -141 47 -230 89 -445 9 -47 23 -119 31 -160 8 -41 19 -95
24 -120 15 -80 15 -80 86 -80 46 0 66 4 70 14 4 12 -59 280 -122 516 -8 30
-25 98 -38 150 -13 52 -38 149 -56 215 -17 66 -51 197 -75 291 -55 218 -66
239 -106 199z"/>
<path d="M622 3971 c-9 -5 -12 -26 -10 -67 l3 -59 405 0 405 0 0 65 0 65 -395
2 c-217 2 -401 -1 -408 -6z"/>
<path d="M6022 3971 c-9 -5 -12 -26 -10 -67 l3 -59 403 -3 403 -2 -3 67 -3 68
-390 2 c-214 2 -396 -1 -403 -6z"/>
<path d="M1640 2789 c-30 -17 -95 -55 -145 -84 -49 -29 -128 -74 -175 -101
-46 -27 -92 -53 -101 -59 -10 -5 -30 -17 -46 -26 -97 -53 -173 -103 -173 -114
0 -7 6 -18 14 -24 8 -6 19 -25 26 -41 7 -18 20 -30 30 -30 10 0 62 26 117 58
54 32 118 70 143 84 211 118 423 244 427 254 5 13 -43 114 -55 114 -4 0 -32
-14 -62 -31z"/>
<path d="M5701 2769 c-17 -27 -31 -53 -31 -58 0 -10 17 -20 418 -250 144 -83
269 -151 277 -151 21 0 71 89 59 107 -8 13 -162 106 -324 195 -30 17 -59 34
-65 38 -19 14 -270 157 -287 163 -13 4 -25 -7 -47 -44z"/>
<path d="M3114 1527 c-2 -7 -3 -175 -2 -373 l3 -361 27 -35 c54 -70 40 -69
592 -66 l496 3 42 43 43 42 3 380 3 380 -601 0 c-487 0 -602 -2 -606 -13z"/>
<path d="M3410 622 c0 -26 49 -91 91 -122 68 -51 116 -65 219 -64 109 0 163
19 232 82 40 36 82 105 71 116 -4 3 -143 6 -310 6 -288 0 -303 -1 -303 -18z"/>
</g>
</svg>
